<?xml version="1.0" encoding="utf-8"?>
<!-- Generator: Adobe Illustrator 16.0.0, SVG Export Plug-In . SVG Version: 6.00 Build 0)  -->
<!DOCTYPE svg PUBLIC "-//W3C//DTD SVG 1.1//EN" "http://www.w3.org/Graphics/SVG/1.1/DTD/svg11.dtd">
<svg version="1.1" id="Layer_1" xmlns="http://www.w3.org/2000/svg" xmlns:xlink="http://www.w3.org/1999/xlink" x="0px" y="0px"
	 width="200.5px" height="100.811px" viewBox="0 0 200.5 100.811" enable-background="new 0 0 200.5 100.811" xml:space="preserve">
<rect x="52.141" y="49.878" fill="none" width="83.705" height="22.813"/>
<g>
	<g>
		
			<linearGradient id="SVGID_1_" gradientUnits="userSpaceOnUse" x1="611.4717" y1="546.1067" x2="780.3157" y2="546.1067" gradientTransform="matrix(1 0 0 1 -591.5 -511)">
			<stop  offset="0.2611" style="stop-color:#C2B59B"/>
			<stop  offset="0.6892" style="stop-color:#3B5239"/>
			<stop  offset="0.9437" style="stop-color:#C49A6C"/>
		</linearGradient>
		<path fill="url(#SVGID_1_)" d="M29.543,43.249c0.125,0.079,0.208,0.147,0.248,0.204c0.04,0.06,0.065,0.132,0.077,0.224
			c0,0.057-0.015,0.141-0.042,0.248c-0.029,0.106-0.066,0.225-0.111,0.35c-0.08,0.185-0.18,0.354-0.299,0.515
			c-0.12,0.159-0.26,0.313-0.419,0.461l-0.291,0.104l-0.171,0.41c-1.151,0.707-2.236,1.244-3.255,1.613
			c-1.02,0.371-1.929,0.557-2.726,0.557c-0.308,0-0.604-0.021-0.889-0.061c-0.285-0.041-0.559-0.102-0.82-0.182l-0.359-0.375
			l-0.325,0.104l-0.41-0.428l-0.461,0.033c-0.729-0.25-1.453-0.795-2.17-1.63c-0.718-0.838-1.253-1.787-1.606-2.848l0.068-0.394
			l-0.239-0.272l0.034-0.342l-0.205-0.152l-0.085-0.514l0.085-0.326l-0.188-0.17l0.188-0.599l-0.222-0.172l0.068-0.563l-0.138-0.322
			c0.034-1.207,0.117-2.18,0.248-2.914c0.13-0.734,0.304-1.205,0.521-1.41l-0.034-0.77l0.171-0.699l0.222-0.258
			c0.103-0.638,0.45-1.463,1.042-2.478c0.592-1.014,1.361-2.085,2.307-3.213l0.496-0.394l0.461-0.632l0.735-0.479l0.273-0.12
			l0.138-0.272c0.866-0.773,1.697-1.357,2.495-1.752c0.797-0.394,2.011-0.721,3.64-0.981l0.342,0.067l0.598-0.138l0.667,0.291
			l0.205,0.273l0.598,0.137l0.632,0.461v0.205l0.342,0.239c0.137,0.559,0.236,1.182,0.299,1.87c0.063,0.689,0.094,1.468,0.094,2.333
			c0,0.491-0.02,0.93-0.06,1.316c-0.04,0.388-0.105,0.769-0.196,1.146l-0.205,0.272l0.068,0.41c-0.114,0.547-0.308,1.211-0.581,1.99
			c-0.273,0.779-0.649,1.74-1.128,2.879l-0.103,0.428l-0.496,0.273l-0.376-0.139l-0.291,0.309l-0.701,0.154l-0.239-0.154h-0.325
			l-0.034-0.734L26.927,36l-0.188-0.394c0.011-0.057,0.017-0.147,0.017-0.272c0.034-1.47,0.159-2.414,0.376-2.836l-0.034-0.24
			l0.239-0.461l-0.068-0.479c0.137-0.33,0.271-0.694,0.402-1.094c0.13-0.398,0.253-0.854,0.367-1.367l0.837-0.734l0.188-1.18
			l-0.068-0.563c-0.217-0.216-0.439-0.386-0.667-0.504c-0.228-0.12-0.49-0.215-0.786-0.281l-0.171-0.31l-1.248,0.034l-0.359-0.137
			l-0.273,0.271c-0.262,0.047-0.51,0.104-0.744,0.172s-0.464,0.153-0.692,0.256l-0.325-0.138l-0.444,0.239l-0.068,0.256l-0.82,0.735
			h-0.239l-0.103,0.342c-0.262,0.296-0.516,0.584-0.761,0.863c-0.245,0.28-0.481,0.549-0.709,0.811l-0.205,0.224l0.034,0.272
			c-0.661,1.047-1.171,2.179-1.529,3.394c-0.359,1.213-0.584,2.59-0.675,4.127l-0.222,0.528l0.256,0.429
			c0.034,0.389,0.077,0.764,0.128,1.129c0.051,0.363,0.111,0.711,0.179,1.041l-0.068,0.479l0.325,0.461
			c0.045,0.093,0.171,0.334,0.376,0.729c0.205,0.393,0.359,0.715,0.461,0.965v0.613l0.513,0.291
			c0.353,0.524,0.897,0.979,1.632,1.367c0.734,0.389,1.404,0.581,2.008,0.581c0.205,0,0.564-0.051,1.077-0.153
			c0.513-0.104,0.928-0.154,1.248-0.154l0.171,0.104l0.632-0.599l0.581-0.137l0.359-0.359l0.701-0.272l0.496,0.033l0.137-0.41
			L29.543,43.249z"/>
		
			<linearGradient id="SVGID_2_" gradientUnits="userSpaceOnUse" x1="611.4727" y1="547.26" x2="780.3221" y2="547.26" gradientTransform="matrix(1 0 0 1 -591.5 -511)">
			<stop  offset="0.2611" style="stop-color:#C2B59B"/>
			<stop  offset="0.6892" style="stop-color:#3B5239"/>
			<stop  offset="0.9437" style="stop-color:#C49A6C"/>
		</linearGradient>
		<path fill="url(#SVGID_2_)" d="M41.558,43.351l-0.427,0.803l-0.273,0.771l-0.991,1.366l-1.504,1.4l-0.479,0.104l-0.325-0.104
			l-0.444-1.537c-0.103-0.809-0.183-1.582-0.239-2.315c-0.057-0.734-0.085-1.41-0.085-2.025c0-0.434,0.002-0.754,0.009-0.965
			c0.005-0.211,0.014-0.418,0.025-0.623l-0.41-1.352c-0.239-0.271-0.41-0.519-0.513-0.734s-0.154-0.428-0.154-0.633
			c0-0.375,0.245-0.859,0.735-1.451c0.148-0.184,0.262-0.33,0.342-0.445l0.291-1.469l0.342-3.521l0.53-3.367l0.205-0.343
			l-0.137-0.563l0.325-2.428c0.182-0.104,0.353-0.223,0.513-0.358c0.159-0.138,0.302-0.296,0.427-0.479
			c0.342-0.092,0.615-0.153,0.82-0.188s0.387-0.052,0.547-0.052c0.376,0,0.621,0.172,0.735,0.514
			c0.08,0.251,0.182,0.456,0.308,0.615l-0.308,1.281c-0.08,0.16-0.131,0.275-0.154,0.352c-0.023,0.074-0.034,0.134-0.034,0.179
			c0,0.068,0.002,0.125,0.009,0.172c0.005,0.046,0.014,0.097,0.025,0.153l-0.667,3.315l-0.034,0.938l-0.444,1.658l0.034,0.41
			l-0.103,0.906l-0.325,1.471l1.401-0.172h0.256l0.444-0.172c0.262-0.066,0.496-0.119,0.701-0.152
			c0.205-0.035,0.381-0.053,0.53-0.053c0.148,0,0.313,0.035,0.496,0.104c0.182,0.068,0.296,0.104,0.342,0.104
			c0.353-0.104,0.609-0.158,0.769-0.172l2.939-0.188l0.461,0.154l0.273-0.188l0.667-0.137l0.342-0.941l0.188-0.495V31.73
			l0.547-2.547l0.188-2.273c0-0.045,0.005-0.119,0.017-0.222c0.011-0.104,0.017-0.183,0.017-0.239c0-0.158-0.029-0.302-0.085-0.427
			c-0.057-0.125-0.148-0.239-0.273-0.342l0.667-1.128c0.376-0.626,0.82-1.129,1.333-1.505s0.945-0.563,1.299-0.563
			c0.148,0,0.259,0.071,0.333,0.214c0.074,0.144,0.111,0.367,0.111,0.676v0.667v0.614c0,0.456-0.063,1.117-0.188,1.982l-0.017,0.085
			l-0.137,0.7l-0.137,0.428l0.137,0.375l-0.53,3.094c-0.057,0.479-0.128,0.908-0.214,1.291c-0.085,0.381-0.162,0.646-0.23,0.793
			l-0.256,0.496l-0.171,0.326l0.068,0.41l-0.138,0.633l-0.94,4.375l-0.325,0.666l0.068,0.428l-0.171,0.375l-0.906,3.521
			c-0.148,0.594-0.319,1.11-0.513,1.554l-0.051,0.137c0,0.023,0.017,0.08,0.051,0.174c0.034,0.09,0.051,0.176,0.051,0.256
			c0,0.16-0.088,0.398-0.265,0.727c-0.177,0.324-0.265,0.596-0.265,0.813v0.068v0.426l-0.239,0.445l-0.068,0.393l-0.342,0.17
			l-0.188,0.104c-0.012,0.012-0.034,0.029-0.068,0.051c-0.08,0.057-0.148,0.086-0.205,0.086c-0.148,0-0.296-0.068-0.444-0.205
			s-0.222-0.291-0.222-0.461c0-0.08,0.011-0.178,0.034-0.291c0.022-0.115,0.057-0.252,0.103-0.41l-0.171-0.342l0.171-0.906
			l0.171-0.188l-0.068-0.77l0.291-2.019l0.239-1.094l0.461-2.904l0.239-0.461l-0.103-0.377l0.239-1.229l0.171-0.408l-0.068-0.139
			l0.222-1.726l-0.735-0.035l-0.291-0.102l-0.376,0.307l-1.333,0.256l-0.461-0.137L44.172,36.6l-0.513,0.172L43.3,36.805
			l-0.273,0.205l-0.667,0.088l-0.239,0.271l-1.333,0.378L40.6,38.038l-0.479,0.309c-0.148,0.09-0.251,0.188-0.308,0.299
			c-0.057,0.107-0.097,0.312-0.12,0.605l-0.068,0.957l-0.103,0.272l-0.034,1.795l0.103,0.271l0.171,1.334l0.256,0.272l0.735-0.563
			l0.308-0.377L41.558,43.351z"/>
		
			<linearGradient id="SVGID_3_" gradientUnits="userSpaceOnUse" x1="607.9404" y1="549.387" x2="776.7795" y2="549.387" gradientTransform="matrix(1 0 0 1 -591.5 -511)">
			<stop  offset="0.2611" style="stop-color:#C2B59B"/>
			<stop  offset="0.6892" style="stop-color:#3B5239"/>
			<stop  offset="0.9437" style="stop-color:#C49A6C"/>
		</linearGradient>
		<path fill="url(#SVGID_3_)" d="M55.795,49.879l-0.667-0.033l-0.273-0.137l-0.393-0.205c-0.125-0.24-0.213-0.434-0.265-0.582
			c-0.051-0.148-0.077-0.295-0.077-0.443c0-0.125,0.011-0.277,0.034-0.453c0.022-0.178,0.057-0.372,0.103-0.59l0.137-0.428
			l0.171-2.238l0.171-0.735l0.256-1.709l-0.393-0.666l-0.342-0.205c-0.125-0.158-0.231-0.324-0.316-0.496
			c-0.086-0.172-0.157-0.349-0.214-0.529l0.034-0.309l-0.068-0.31c0.193-0.33,0.515-0.604,0.966-0.819
			c0.45-0.216,0.737-0.396,0.863-0.547l0.239-4.203l-0.034-0.496l0.034-1.676l0.068-0.357l-0.103-0.344l0.068-1.076
			c-0.012-0.021-0.023-0.051-0.034-0.086c-0.091-0.215-0.137-0.375-0.137-0.479c0-0.033,0.002-0.077,0.008-0.128
			c0.006-0.052,0.026-0.15,0.06-0.299c-0.034-0.147-0.06-0.296-0.077-0.444c-0.018-0.146-0.026-0.291-0.026-0.427
			c0-1.014,0.384-1.88,1.154-2.599c0.769-0.718,1.666-1.076,2.691-1.076c0.376,0,0.923,0.063,1.641,0.188
			c0.72,0.128,1.409,0.299,2.07,0.517l1.641,0.563c1.641,0.56,2.962,1.349,3.965,2.367c1.002,1.021,1.504,2.105,1.504,3.255
			c0,0.82-0.259,1.541-0.778,2.162s-1.37,1.234-2.555,1.838l-0.205,0.205l-1.094,0.563h-0.41l-0.53,0.531l-1.606,0.803l-0.598,0.172
			l-0.273,0.203l-2.769,1.061l-0.564,0.479c0.479,0.992,1.248,1.92,2.307,2.787c1.06,0.864,1.652,1.396,1.777,1.588l0.256,0.121
			c1.276,1.024,2.295,1.875,3.059,2.545c0.763,0.674,1.145,1.061,1.145,1.162l0.41,0.104c0.091,0.092,0.205,0.201,0.342,0.326
			c0.137,0.125,0.364,0.318,0.684,0.58l0.273,0.068l0.325,0.357l0.137,0.238c0.148,0.068,0.265,0.143,0.351,0.223
			c0.085,0.08,0.156,0.17,0.213,0.271l-0.034,1.813c-0.046,0.057-0.085,0.1-0.12,0.129c-0.035,0.027-0.068,0.043-0.103,0.043
			c-0.171,0-0.333-0.047-0.487-0.137c-0.153-0.092-0.339-0.256-0.555-0.496l-1.572-0.907l-1.504-0.598l-0.325-0.309l-0.308-0.035
			c-0.319-0.309-0.709-0.613-1.171-0.922c-0.461-0.311-0.704-0.535-0.726-0.685l-0.53-0.326l-2.41-1.674l-0.803-0.668l-0.308-0.137
			l-0.632-0.496l-0.068-0.238l-1.23-0.735l-0.632,2.309l-0.376,2l-0.325,1.332L55.795,49.879z M58.341,37.712
			c0.148,0,0.288-0.025,0.419-0.076c0.13-0.053,0.265-0.135,0.401-0.248c0.148-0.067,0.319-0.129,0.513-0.182
			c0.193-0.051,0.41-0.099,0.649-0.146l0.342-0.342l0.41-0.033l0.205-0.309l1.299-0.529h0.325l0.308-0.531l0.803-0.204l0.376-0.443
			c0.25-0.104,0.501-0.238,0.752-0.41c0.25-0.17,0.496-0.375,0.735-0.615l0.803-0.768c0.091-0.172,0.159-0.322,0.205-0.453
			c0.045-0.131,0.068-0.248,0.068-0.352c0-0.353-0.342-0.859-1.025-1.521c-0.273-0.272-0.49-0.491-0.649-0.65l-0.205-0.066
			c-0.501-0.285-1.034-0.521-1.598-0.709c-0.564-0.188-1.188-0.34-1.872-0.453l-1.76-0.273l-0.273-0.171
			c-0.125,0.034-0.234,0.061-0.325,0.077c-0.091,0.018-0.171,0.024-0.239,0.024c-0.068,0-0.163-0.012-0.282-0.033
			c-0.12-0.022-0.197-0.034-0.231-0.034c-0.114,0-0.231,0.018-0.35,0.051c-0.12,0.034-0.277,0.098-0.47,0.188
			c-0.183,0.251-0.313,0.443-0.393,0.58c-0.08,0.138-0.12,0.245-0.12,0.325c0,0.033,0.017,0.083,0.051,0.146
			c0.034,0.063,0.051,0.11,0.051,0.146l0.103,1.777l0.376-0.684c0.068-0.115,0.168-0.209,0.299-0.283
			c0.13-0.074,0.282-0.127,0.453-0.162c0.045-0.067,0.1-0.125,0.163-0.17c0.062-0.045,0.133-0.069,0.213-0.069
			c0.114,0,0.222,0.025,0.325,0.077s0.216,0.146,0.342,0.283c0,0.17,0.028,0.307,0.085,0.41c0.057,0.102,0.159,0.199,0.308,0.291
			l-0.222,0.802l-0.137,0.205l-0.137,0.461l0.103,0.342l-0.427,1.095l0.051,0.237l-0.427,1.572L58.341,37.712z"/>
		
			<linearGradient id="SVGID_4_" gradientUnits="userSpaceOnUse" x1="608.4727" y1="550.8879" x2="777.3267" y2="550.8879" gradientTransform="matrix(1 0 0 1 -591.5 -511)">
			<stop  offset="0.2611" style="stop-color:#C2B59B"/>
			<stop  offset="0.6892" style="stop-color:#3B5239"/>
			<stop  offset="0.9437" style="stop-color:#C49A6C"/>
		</linearGradient>
		<path fill="url(#SVGID_4_)" d="M76.138,52.175c-0.239,0.148-0.447,0.254-0.624,0.316c-0.177,0.063-0.345,0.094-0.504,0.094
			c-0.125,0-0.254-0.1-0.385-0.299c-0.131-0.199-0.253-0.35-0.367-0.453l-0.188-0.82l0.034-0.769l-0.239-0.547v-0.989v-1.3V47.1
			c0-0.387,0.026-0.719,0.077-0.99c0.052-0.272,0.128-0.524,0.231-0.752l-0.171-0.496c0.148-1.414,0.256-2.469,0.325-3.17
			c0.068-0.701,0.137-1.354,0.205-1.957l0.137-1.008l0.137-0.172c-0.046-0.375-0.083-0.719-0.111-1.025
			c-0.028-0.307-0.048-0.604-0.06-0.889l-0.461-0.084c-0.034-0.193-0.06-0.361-0.077-0.506c-0.018-0.142-0.026-0.265-0.026-0.365
			c0-0.068,0.028-0.246,0.085-0.531c0.022-0.125,0.04-0.221,0.051-0.291l0.171-0.461l-0.068-0.528l0.393-1.642l0.273-0.394
			l0.051-0.786c0.057-0.158,0.142-0.397,0.256-0.718c0.581-1.642,1.299-2.563,2.153-2.77l0.273,0.067l0.273-0.238
			c0.25-0.068,0.473-0.12,0.667-0.154c0.193-0.033,0.359-0.051,0.496-0.051c0.114,0,0.199,0.067,0.256,0.205
			c0.057,0.137,0.085,0.348,0.085,0.632c-0.183,1.96-0.374,3.407-0.572,4.341c-0.2,0.936-0.459,1.693-0.778,2.273l0.103,0.377
			l-0.291,1.299l-0.308,1.469l0.034,0.496l-0.205,0.804l0.034,0.6l-0.222,0.666v0.479l-0.171,1.025l-0.205,2.342l0.034,0.599
			c-0.114,0.5-0.194,1.061-0.239,1.674c-0.046,0.615-0.068,1.396-0.068,2.342c0,0.172,0.011,0.371,0.034,0.598
			c0.022,0.229,0.068,0.525,0.137,0.89v0.343l0.273,0.407c-0.046,0.229-0.137,0.428-0.273,0.6
			C76.667,51.816,76.446,51.993,76.138,52.175z"/>
		
			<linearGradient id="SVGID_5_" gradientUnits="userSpaceOnUse" x1="611.4785" y1="552.1438" x2="780.318" y2="552.1438" gradientTransform="matrix(1 0 0 1 -591.5 -511)">
			<stop  offset="0.2611" style="stop-color:#C2B59B"/>
			<stop  offset="0.6892" style="stop-color:#3B5239"/>
			<stop  offset="0.9437" style="stop-color:#C49A6C"/>
		</linearGradient>
		<path fill="url(#SVGID_5_)" d="M89.307,42.798c-0.296-0.48-0.555-1-0.778-1.564c-0.222-0.563-0.401-1.182-0.538-1.854
			l-0.393-0.633l-0.034-0.342c-0.194-0.41-0.35-0.781-0.47-1.111c-0.119-0.33-0.208-0.639-0.265-0.924
			c0.011-0.033,0.02-0.066,0.025-0.103c0.005-0.036,0.009-0.08,0.009-0.137c0-0.104-0.02-0.189-0.06-0.258
			c-0.041-0.066-0.111-0.138-0.214-0.203c-0.068-0.25-0.16-0.582-0.273-0.992c-0.114-0.41-0.188-0.701-0.222-0.871l0.034-0.309
			l-0.137-0.205v-0.291l-0.205-0.222c-0.023-0.272-0.049-0.523-0.077-0.753c-0.029-0.228-0.066-0.438-0.111-0.632v-0.137
			c0-0.193,0.04-0.404,0.12-0.632c0.08-0.229,0.205-0.484,0.376-0.771l0.171-0.171l0.068-0.325l0.496-0.733l0.103-0.343l0.359-0.138
			c0.057-0.113,0.137-0.202,0.239-0.265c0.102-0.063,0.256-0.117,0.461-0.163l0.051-0.034c0.296-0.179,0.496-0.271,0.598-0.271
			s0.196,0.067,0.282,0.205c0.085,0.138,0.133,0.309,0.145,0.514l0.427,0.085l0.171,0.376c0.103,0.205,0.185,0.396,0.248,0.571
			c0.062,0.178,0.105,0.355,0.128,0.539l-0.034,0.291v0.89c-0.023,0.034-0.068,0.103-0.137,0.205
			c-0.069,0.102-0.114,0.183-0.137,0.238c0,0.409,0.02,0.814,0.06,1.213c0.04,0.398,0.1,0.798,0.18,1.196l-0.034,0.427l0.171,0.205
			l-0.034,0.325l0.222,0.171l0.171,0.872l0.068,0.138l0.171,0.924v0.137c0,0.113,0.02,0.22,0.06,0.314
			c0.04,0.098,0.105,0.203,0.196,0.315c0.068,0.273,0.139,0.527,0.214,0.761c0.074,0.233,0.15,0.452,0.23,0.657l0.103,0.564
			l0.496-0.547c0.091-0.262,0.185-0.478,0.282-0.642c0.097-0.166,0.214-0.315,0.351-0.452l0.24-0.41
			c0.192-0.138,0.353-0.293,0.479-0.472c0.125-0.176,0.232-0.405,0.324-0.69l0.256-0.256c0.08-0.297,0.199-0.582,0.359-0.854
			c0.159-0.272,0.377-0.559,0.648-0.854l0.205-0.308l0.119-0.291l0.548-0.837l0.153-0.308l0.377-0.771h-0.311
			c-0.146,0.194-0.271,0.325-0.367,0.395c-0.098,0.066-0.195,0.103-0.299,0.103c-0.047,0-0.084-0.005-0.111-0.017
			s-0.055-0.022-0.076-0.034l-0.291-0.291c-0.067-0.091-0.11-0.154-0.129-0.188c-0.018-0.034-0.025-0.067-0.025-0.104
			c0-0.068,0.025-0.156,0.077-0.266c0.053-0.107,0.116-0.208,0.196-0.299l0.291-0.394l0.377-0.41l1.365-1.229l0.496-0.138
			l0.172-0.324l1.437-1.076c0.125-0.125,0.241-0.224,0.35-0.291c0.108-0.069,0.216-0.104,0.316-0.104
			c0.147,0,0.329,0.168,0.547,0.504c0.217,0.337,0.325,0.676,0.325,1.019c0,0.021-0.006,0.057-0.018,0.103s-0.018,0.08-0.018,0.104
			l-0.137,0.271l0.137,0.138v0.77c0,0.184-0.025,0.362-0.076,0.538c-0.053,0.177-0.129,0.345-0.23,0.504
			c-0.08,0.456-0.203,0.853-0.369,1.188c-0.164,0.336-0.383,0.646-0.657,0.932c-0.013,0.09-0.052,0.189-0.119,0.299
			c-0.069,0.107-0.153,0.207-0.257,0.299l-0.223,0.308l-0.701,0.77l-0.836,1.008c-0.114,0.273-0.237,0.5-0.367,0.677
			c-0.131,0.178-0.276,0.305-0.438,0.385c-0.262,0.422-0.486,0.764-0.674,1.024c-0.188,0.263-0.352,0.474-0.486,0.632
			c-0.104,0.205-0.215,0.405-0.334,0.6s-0.254,0.398-0.4,0.613c-0.114,0.047-0.202,0.104-0.266,0.182
			c-0.063,0.072-0.11,0.174-0.146,0.299c-0.112,0.113-0.214,0.234-0.299,0.359c-0.087,0.125-0.175,0.277-0.267,0.461
			c-0.227,0.342-0.39,0.598-0.486,0.768c-0.096,0.173-0.18,0.32-0.247,0.445c0.114,0.375,0.233,0.73,0.358,1.066
			s0.262,0.657,0.41,0.967c0.021,0.172,0.061,0.313,0.11,0.428c0.052,0.113,0.123,0.211,0.214,0.291l0.443,0.752
			c0.022,0.146,0.059,0.271,0.104,0.367c0.045,0.096,0.107,0.174,0.188,0.229l0.479,0.939c0.021,0.16,0.063,0.293,0.119,0.4
			c0.058,0.108,0.138,0.188,0.239,0.231l0.308,0.563l0.224,0.53c0.205,0.296,0.412,0.609,0.623,0.939
			c0.211,0.332,0.465,0.734,0.762,1.212c0.057,0.08,0.098,0.145,0.119,0.197c0.022,0.051,0.035,0.104,0.035,0.162
			c0,0.012-0.009,0.033-0.026,0.066c-0.017,0.033-0.042,0.08-0.077,0.139l-0.291,0.137l-0.632,0.223
			c-0.159,0-0.308-0.037-0.444-0.111c-0.137-0.076-0.268-0.18-0.393-0.316l-0.461,0.035c-0.252-0.115-0.502-0.303-0.752-0.564
			c-0.252-0.26-0.514-0.607-0.787-1.042l-0.066-0.426L93.272,49.7c-0.148-0.183-0.282-0.369-0.402-0.556
			c-0.119-0.188-0.23-0.385-0.333-0.59c-0.16-0.115-0.299-0.256-0.419-0.428c-0.119-0.172-0.225-0.387-0.316-0.648
			c-0.034-0.16-0.091-0.291-0.171-0.393c-0.08-0.104-0.194-0.205-0.342-0.31c-0.16-0.284-0.354-0.684-0.581-1.196
			c-0.046-0.09-0.08-0.158-0.103-0.205L90.4,45.513l-0.171,0.205l-0.222,0.443c-0.068,0.104-0.148,0.205-0.239,0.309
			c-0.091,0.103-0.205,0.221-0.342,0.357l-0.735,1.229c0,0.172-0.037,0.328-0.111,0.471c-0.075,0.144-0.18,0.275-0.316,0.4
			c-0.171,0.297-0.348,0.59-0.53,0.881c-0.183,0.291-0.393,0.619-0.632,0.981v0.068c0,0.205-0.183,0.443-0.547,0.716
			c-0.046,0.035-0.08,0.064-0.103,0.086l-0.359,0.529l-0.068,0.309l-0.461,0.529l-0.103,0.273l-1.111,1.641
			c-0.046,0.068-0.077,0.111-0.094,0.129c-0.017,0.018-0.037,0.025-0.06,0.025c-0.046-0.012-0.114-0.08-0.205-0.205
			c-0.012-0.012-0.023-0.029-0.034-0.051l-0.171-0.17c-0.011-0.035-0.02-0.084-0.025-0.146s-0.009-0.129-0.009-0.197
			c0-0.125,0.015-0.244,0.043-0.357c0.028-0.115,0.071-0.229,0.128-0.342l-0.034-0.6c-0.011-0.033-0.02-0.07-0.025-0.109
			c-0.005-0.041-0.009-0.102-0.009-0.18c0-0.092,0.023-0.18,0.068-0.266c0.045-0.084,0.114-0.156,0.205-0.213l0.137-0.393
			c0-0.047-0.006-0.096-0.017-0.146c-0.012-0.051-0.017-0.082-0.017-0.094c0-0.092,0.02-0.18,0.06-0.268
			c0.04-0.086,0.105-0.184,0.197-0.299l0.974-1.708l1.128-2.067l0.239-0.343l-0.071-0.151l0.701-1.076
			c0.091-0.139,0.173-0.242,0.248-0.316c0.074-0.073,0.151-0.133,0.231-0.18c0.022-0.215,0.068-0.375,0.137-0.479
			c0.069-0.104,0.176-0.188,0.325-0.257c0.182-0.329,0.373-0.682,0.572-1.051C89.173,43.066,89.284,42.853,89.307,42.798z"/>
		
			<linearGradient id="SVGID_6_" gradientUnits="userSpaceOnUse" x1="613.9678" y1="549.387" x2="782.8282" y2="549.387" gradientTransform="matrix(1 0 0 1 -591.5 -511)">
			<stop  offset="0.2611" style="stop-color:#C2B59B"/>
			<stop  offset="0.6892" style="stop-color:#3B5239"/>
			<stop  offset="0.9437" style="stop-color:#C49A6C"/>
		</linearGradient>
		<path fill="url(#SVGID_6_)" d="M108.896,29.013c-0.104-0.021-0.209-0.039-0.316-0.051s-0.27-0.018-0.484-0.018l-0.172-0.104
			l-0.139,0.067c-0.021,0.104-0.061,0.168-0.109,0.197c-0.053,0.027-0.158,0.048-0.316,0.06c-0.104,0-0.188-0.002-0.256-0.009
			c-0.066-0.005-0.145-0.014-0.223-0.024l-0.154,0.104l-0.291-0.034c-0.113,0.08-0.262,0.148-0.441,0.205
			c-0.186,0.058-0.4,0.104-0.65,0.138l-0.223-0.068l-0.256,0.171c-0.08,0.022-0.307,0.08-0.676,0.171s-0.67,0.177-0.896,0.256
			c-0.068,0.046-0.123,0.074-0.162,0.085c-0.041,0.013-0.078,0.018-0.111,0.018c-0.08,0-0.145-0.04-0.197-0.12
			c-0.051-0.079-0.082-0.192-0.094-0.342l-0.02-0.394c0.045-0.067,0.084-0.125,0.111-0.171c0.027-0.045,0.049-0.08,0.061-0.104
			c0-0.067-0.012-0.113-0.033-0.138c0-0.067,0.066-0.153,0.203-0.256l0.035-0.018l-0.068-0.272l0.238-1.024
			c0.115-0.113,0.23-0.358,0.344-0.734l0.018-0.034c0.125-0.192,0.287-0.336,0.486-0.427c0.197-0.092,0.453-0.138,0.76-0.138
			l0.428-0.172l1.641-0.171h0.104c0.08,0,0.148,0.013,0.205,0.034c0.057,0.022,0.107,0.058,0.154,0.104
			c0.113-0.08,0.242-0.14,0.383-0.18c0.143-0.04,0.316-0.06,0.521-0.06l2.031-0.104c0.061,0,0.148,0.007,0.273,0.019
			c0.285,0.021,0.461,0.051,0.529,0.085c0.023-0.012,0.047-0.019,0.068-0.019c0.125-0.033,0.217-0.051,0.273-0.051
			c0.02,0,0.098,0.034,0.223,0.104c0.033,0.022,0.068,0.047,0.102,0.067l0.41-0.067c0.115,0.013,0.227,0.028,0.334,0.052
			s0.281,0.063,0.521,0.12h0.307c0.16,0,0.309,0.008,0.445,0.024c0.135,0.018,0.268,0.042,0.393,0.077
			c0.09,0.068,0.176,0.125,0.256,0.171s0.137,0.068,0.172,0.068c0.033,0,0.07-0.018,0.109-0.051
			c0.041-0.034,0.072-0.063,0.094-0.086c0.035-0.012,0.068-0.021,0.104-0.025s0.068-0.008,0.105-0.008
			c0.191,0,0.336,0.107,0.428,0.324c0.09,0.218,0.137,0.576,0.137,1.077l-0.137,0.428c0,0.033,0.006,0.103,0.018,0.204
			c0.033,0.354,0.051,0.599,0.051,0.734c0,0.104-0.025,0.18-0.078,0.231c-0.051,0.051-0.127,0.077-0.229,0.077
			c-0.035,0-0.068-0.003-0.104-0.009c-0.037-0.007-0.1-0.025-0.189-0.061c-0.217-0.045-0.467-0.085-0.752-0.12
			c-0.285-0.034-0.707-0.063-1.266-0.085c-0.092-0.021-0.168-0.054-0.23-0.094s-0.117-0.088-0.162-0.146
			c-0.08,0.08-0.156,0.139-0.229,0.172c-0.074,0.033-0.162,0.058-0.268,0.067c-0.125-0.011-0.27-0.021-0.441-0.025
			c-0.172-0.006-0.467-0.009-0.891-0.009l-0.066,0.104l-0.273,0.103l0.531,0.188l0.307,0.376l0.445,0.238
			c0.033,0.296,0.084,0.535,0.152,0.719c0.066,0.183,0.172,0.354,0.309,0.513v0.326c0,0.205-0.014,0.404-0.041,0.598
			c-0.029,0.193-0.072,0.388-0.129,0.58l-0.104,0.24l0.066,0.563l-0.375,1.438l-0.188,0.256l0.104,0.308l-0.41,1.438l0.068,0.102
			l-0.564,2.273v0.172l-0.342,0.99c0.012,0.057,0.02,0.111,0.027,0.164c0.004,0.051,0.008,0.1,0.008,0.145
			c0,0.058-0.014,0.123-0.035,0.197c-0.023,0.074-0.068,0.178-0.137,0.314l0.068,0.121c-0.125,1.127-0.227,1.944-0.301,2.45
			c-0.072,0.509-0.154,0.92-0.248,1.24c-0.078,0.08-0.143,0.166-0.188,0.256c-0.047,0.09-0.068,0.176-0.068,0.256
			c0,0.023,0.02,0.095,0.053,0.214c0.033,0.118,0.063,0.227,0.086,0.315c-0.105,0.56-0.18,1.103-0.225,1.633
			c-0.047,0.529-0.066,1.045-0.066,1.545l-0.068,0.172l0.104,0.238c0.012,0.08,0.02,0.154,0.025,0.223
			c0.004,0.068,0.008,0.158,0.008,0.273c0,0.215-0.033,0.389-0.102,0.52c-0.07,0.131-0.205,0.271-0.41,0.418l-0.256-0.033
			l-0.205,0.359l-0.137,0.068l-0.205-0.068l-0.225,0.068c-0.17-0.115-0.291-0.205-0.359-0.273c-0.066-0.068-0.119-0.137-0.152-0.205
			l-0.086-0.564l0.225-0.461c-0.08-0.148-0.139-0.287-0.172-0.418s-0.053-0.271-0.053-0.418c-0.045-0.124-0.078-0.235-0.104-0.333
			c-0.021-0.096-0.033-0.195-0.033-0.299L107,47.474l0.104-0.24c-0.021-0.09-0.039-0.156-0.051-0.197
			c-0.012-0.039-0.018-0.069-0.018-0.094c0-0.045,0.006-0.09,0.018-0.137c0.012-0.045,0.018-0.08,0.018-0.104l-0.137-0.358
			l0.033-0.939c0.045-0.104,0.08-0.199,0.104-0.291c0.021-0.09,0.033-0.17,0.033-0.238c0-0.079-0.006-0.163-0.018-0.247
			c-0.012-0.087-0.027-0.169-0.051-0.248l0.035-1.078c0.057-0.146,0.096-0.313,0.119-0.494c0.021-0.185,0.033-0.404,0.033-0.668
			c0-0.08-0.006-0.199-0.016-0.359c-0.014-0.158-0.02-0.285-0.02-0.375l0.172-0.615v-0.668l0.104-0.871
			c0.045-0.067,0.08-0.135,0.104-0.196c0.021-0.063,0.033-0.14,0.033-0.23c0-0.09-0.002-0.162-0.008-0.213s-0.014-0.1-0.023-0.146
			c0.033-0.308,0.068-0.724,0.104-1.248c0.064-0.99,0.145-1.605,0.236-1.847l0.051-0.188v-0.324l0.139-0.582
			c0.012-0.021,0.027-0.051,0.051-0.084c0.125-0.193,0.189-0.33,0.189-0.41c0-0.022-0.012-0.061-0.025-0.11
			c-0.018-0.052-0.043-0.105-0.078-0.162l-0.033-0.496l0.342-2c0.08-0.091,0.137-0.173,0.172-0.247
			c0.033-0.074,0.051-0.14,0.051-0.196c0-0.058-0.008-0.125-0.027-0.205c-0.016-0.08-0.041-0.171-0.076-0.272L108.896,29.013z"/>
		
			<linearGradient id="SVGID_7_" gradientUnits="userSpaceOnUse" x1="611.4707" y1="547.22" x2="780.3249" y2="547.22" gradientTransform="matrix(1 0 0 1 -591.5 -511)">
			<stop  offset="0.2611" style="stop-color:#C2B59B"/>
			<stop  offset="0.6892" style="stop-color:#3B5239"/>
			<stop  offset="0.9437" style="stop-color:#C49A6C"/>
		</linearGradient>
		<path fill="url(#SVGID_7_)" d="M114.992,36.703l-0.838,1.162c-0.137,0-0.271-0.021-0.402-0.067
			c-0.131-0.045-0.234-0.103-0.314-0.17l-0.018-0.82l0.223-0.273l-0.053-0.631l2.104-3.846l0.395-1.025l0.205-0.442l0.033-0.429
			l0.564-1.862l0.205-0.409l0.066-0.564l0.77-1.675l0.699-0.939l0.225-0.496l0.48-0.324l0.633-0.376c0.236,0,0.434,0.046,0.58,0.137
			s0.223,0.211,0.223,0.358c0,0.08-0.059,0.233-0.17,0.462c-0.047,0.091-0.08,0.153-0.105,0.188l-0.172,0.564l-0.803,1.537
			l0.615-0.137l0.223-0.309l0.443-0.394c0.172,0,0.303-0.088,0.395-0.266c0.09-0.176,0.184-0.299,0.273-0.366l1.436-0.939
			c0.068-0.045,0.152-0.108,0.256-0.188c0.389-0.319,0.701-0.479,0.939-0.479c0.045,0,0.1,0.003,0.162,0.009s0.123,0.015,0.18,0.024
			l0.633-0.204h0.838c1.445,0,2.824,0.926,4.137,2.776c1.311,1.853,1.965,3.968,1.965,6.349v0.223l-0.104,0.238v0.633
			c0,0.433-0.041,0.842-0.117,1.229c-0.08,0.389-0.195,0.77-0.344,1.146l-0.104,0.137l0.035,0.496
			c-0.105,0.205-0.25,0.496-0.445,0.871c-0.729,1.402-1.246,2.313-1.555,2.734l-0.344,0.272v0.257l-0.889,0.77l-0.104,0.479
			l-2.066,2.237c-0.08,0.125-0.184,0.229-0.309,0.31s-0.283,0.153-0.479,0.223l-0.359,0.461c-0.568,0.479-1.121,0.871-1.656,1.178
			c-0.535,0.309-1.082,0.541-1.641,0.701l-0.172-0.068l-0.102,0.256c-0.24,0.148-0.52,0.254-0.83,0.316
			c-0.313,0.063-0.729,0.094-1.238,0.094c-0.832,0-1.471-0.076-1.914-0.23c-0.445-0.152-0.719-0.391-0.82-0.709
			c-0.16-0.045-0.291-0.121-0.393-0.23c-0.105-0.105-0.195-0.27-0.273-0.484c-0.398-0.398-0.713-0.979-0.939-1.742
			c-0.229-0.764-0.342-1.637-0.342-2.615c0-0.434,0.014-0.912,0.043-1.438c0.027-0.523,0.068-1.14,0.127-1.847l0.137-0.461
			l-0.066-0.426L114.992,36.703z M118.666,30.723l-0.904,5.109l-0.172,0.479l0.068,0.324l-0.068,2.733l-0.104,0.443l0.104,0.137
			c0.137,1.3,0.357,2.345,0.666,3.138c0.309,0.791,0.689,1.313-2.871,5.733l2.834,0.105l1.777-4.069
			c0.061,0,0.143,0.006,0.248,0.017c0.109,0.014,0.191,0.018,0.248,0.018c0.971,0,1.912-0.287,2.828-0.863
			c0.918-0.574,1.855-1.467,2.814-2.674l0.938-1.471c0.264-0.377,0.48-0.767,0.658-1.172c0.176-0.402,0.322-0.834,0.438-1.289
			l0.203-0.256l-0.033-0.394c0.174-0.686,0.301-1.291,0.387-1.82c0.086-0.528,0.129-0.981,0.129-1.356
			c0-0.16-0.014-0.359-0.035-0.601c-0.023-0.237-0.068-0.592-0.137-1.059l0.033-0.582c-0.139-0.205-0.367-0.684-0.691-1.436
			s-0.709-1.338-1.152-1.761l-0.223-0.308l-0.41-0.138c-0.342-0.229-0.684-0.391-1.025-0.486s-0.725-0.146-1.145-0.146
			c-0.08,0-0.197,0.013-0.352,0.033c-0.154,0.023-0.428,0.068-0.814,0.138l-0.24,0.205l-0.902,0.324l-0.289,0.273l-0.377,0.103
			c-0.471,0.435-0.896,0.854-1.291,1.265C119.41,29.835,119.031,30.267,118.666,30.723z"/>
		
			<linearGradient id="SVGID_8_" gradientUnits="userSpaceOnUse" x1="611.4668" y1="546.304" x2="780.3297" y2="546.304" gradientTransform="matrix(1 0 0 1 -591.5 -511)">
			<stop  offset="0.2611" style="stop-color:#C2B59B"/>
			<stop  offset="0.6892" style="stop-color:#3B5239"/>
			<stop  offset="0.9437" style="stop-color:#C49A6C"/>
		</linearGradient>
		<path fill="url(#SVGID_8_)" d="M135.398,36.335l-0.838,1.162c-0.137,0-0.271-0.021-0.4-0.067c-0.133-0.045-0.236-0.103-0.314-0.17
			l-0.02-0.82l0.225-0.273l-0.055-0.631l2.105-3.846l0.395-1.025l0.203-0.442l0.033-0.429l0.564-1.862l0.205-0.409l0.066-0.564
			l0.771-1.675l0.699-0.939l0.223-0.496l0.479-0.324l0.635-0.376c0.238,0,0.432,0.046,0.58,0.137
			c0.146,0.091,0.223,0.211,0.223,0.358c0,0.08-0.057,0.233-0.17,0.462c-0.047,0.091-0.08,0.153-0.105,0.188l-0.17,0.564
			l-0.803,1.537l0.615-0.137l0.221-0.309l0.445-0.394c0.17,0,0.301-0.088,0.393-0.266c0.092-0.176,0.184-0.299,0.273-0.366
			l1.436-0.939c0.068-0.045,0.154-0.108,0.256-0.188c0.391-0.319,0.701-0.479,0.941-0.479c0.045,0,0.1,0.003,0.162,0.009
			c0.061,0.006,0.121,0.015,0.18,0.024l0.631-0.204h0.838c1.447,0,2.826,0.926,4.137,2.776c1.313,1.853,1.969,3.968,1.969,6.349
			v0.223l-0.105,0.238v0.633c0,0.433-0.039,0.842-0.119,1.229c-0.078,0.389-0.193,0.77-0.342,1.146l-0.102,0.137l0.031,0.496
			c-0.104,0.205-0.25,0.496-0.441,0.871c-0.73,1.402-1.248,2.313-1.559,2.734l-0.342,0.272v0.257l-0.889,0.77l-0.102,0.479
			l-2.068,2.237c-0.08,0.125-0.184,0.229-0.309,0.31s-0.285,0.153-0.479,0.223l-0.359,0.461c-0.568,0.479-1.121,0.871-1.656,1.178
			c-0.537,0.309-1.084,0.541-1.643,0.701l-0.17-0.068l-0.104,0.256c-0.238,0.148-0.518,0.254-0.828,0.316
			c-0.314,0.063-0.729,0.094-1.24,0.094c-0.83,0-1.469-0.076-1.914-0.23c-0.441-0.152-0.717-0.391-0.82-0.709
			c-0.158-0.045-0.289-0.121-0.393-0.23c-0.104-0.105-0.193-0.27-0.273-0.484c-0.398-0.398-0.711-0.979-0.938-1.742
			c-0.23-0.764-0.342-1.637-0.342-2.615c0-0.434,0.014-0.912,0.041-1.438c0.025-0.523,0.068-1.14,0.129-1.847l0.137-0.461
			l-0.068-0.426L135.398,36.335z M139.072,30.355l-0.906,5.109l-0.17,0.479l0.068,0.324l-0.068,2.733l-0.104,0.443l0.104,0.137
			c0.139,1.3,0.357,2.345,0.666,3.138c0.311,0.791,0.689,1.313,1.146,1.563l0.326,0.271l0.27-0.066c0.061,0,0.143,0.006,0.248,0.017
			c0.107,0.014,0.191,0.018,0.248,0.018c0.969,0,1.91-0.287,2.828-0.863c0.918-0.574,1.855-1.467,2.813-2.674l0.939-1.471
			c0.262-0.377,0.48-0.767,0.658-1.172c0.176-0.402,0.32-0.834,0.436-1.289l0.205-0.256l-0.033-0.394
			c0.17-0.686,0.301-1.291,0.387-1.82c0.084-0.528,0.127-0.981,0.127-1.356c0-0.16-0.014-0.359-0.033-0.601
			c-0.023-0.237-0.068-0.592-0.137-1.059l0.031-0.582c-0.137-0.205-0.365-0.684-0.689-1.436s-0.709-1.338-1.154-1.761l-0.223-0.308
			l-0.41-0.138c-0.342-0.229-0.686-0.391-1.023-0.486c-0.344-0.097-0.725-0.146-1.146-0.146c-0.08,0-0.195,0.013-0.35,0.033
			c-0.154,0.023-0.426,0.068-0.813,0.138l-0.24,0.205l-0.904,0.324l-0.291,0.273l-0.375,0.103c-0.469,0.435-0.898,0.854-1.291,1.265
			C139.814,29.467,139.436,29.899,139.072,30.355z"/>
		
			<linearGradient id="SVGID_9_" gradientUnits="userSpaceOnUse" x1="610.6475" y1="549.3079" x2="779.5016" y2="549.3079" gradientTransform="matrix(1 0 0 1 -591.5 -511)">
			<stop  offset="0.2611" style="stop-color:#C2B59B"/>
			<stop  offset="0.6892" style="stop-color:#3B5239"/>
			<stop  offset="0.9437" style="stop-color:#C49A6C"/>
		</linearGradient>
		<path fill="url(#SVGID_9_)" d="M161.183,40.866c-0.148-0.33-0.322-0.803-0.521-1.418c-0.197-0.615-0.379-1.02-0.537-1.213
			l-0.77-1.879c0-0.139-0.031-0.246-0.094-0.326c-0.064-0.08-0.168-0.143-0.316-0.188l-0.033,0.342c0,0.022,0.004,0.063,0.02,0.119
			c0.01,0.059,0.016,0.098,0.016,0.121c0,0.125-0.023,0.254-0.076,0.385c-0.051,0.131-0.145,0.287-0.281,0.471l-0.104,0.461
			c-0.012,0.125-0.033,0.262-0.068,0.41c-0.033,0.146-0.078,0.307-0.137,0.479l-0.137,0.89l-0.068,0.051
			c-0.033,0.217-0.076,0.416-0.127,0.598c-0.053,0.185-0.117,0.359-0.195,0.531l-0.174,0.496l-0.426,1.742l-0.137,0.701
			l-0.139,0.428l-0.066,0.342c-0.115,0.295-0.24,0.734-0.377,1.314c-0.139,0.582-0.256,1.021-0.359,1.315l-0.205,0.31
			c-0.031,0.08-0.064,0.184-0.094,0.309c-0.027,0.125-0.061,0.318-0.094,0.58v0.308c0,0.105-0.033,0.238-0.105,0.41
			c-0.012,0.033-0.02,0.064-0.033,0.084l-0.137,0.41l-0.342,0.838l-0.188,0.514c-0.035,0.217-0.102,0.395-0.197,0.53
			c-0.096,0.137-0.236,0.244-0.418,0.324c-0.023,0-0.053-0.006-0.086-0.018c-0.035-0.012-0.059-0.016-0.068-0.016
			c-0.059,0-0.115,0.031-0.172,0.094s-0.113,0.156-0.17,0.281l-0.189,0.051l-0.342-0.17l0.033-1.54
			c0.068-0.16,0.115-0.291,0.137-0.393c0.023-0.105,0.035-0.211,0.035-0.324c0-0.104-0.018-0.24-0.051-0.41
			c-0.012-0.035-0.018-0.057-0.018-0.068l0.205-0.324l0.461-2.204c-0.023-0.104-0.039-0.184-0.051-0.24
			c-0.012-0.056-0.018-0.102-0.018-0.137c0-0.09,0.014-0.176,0.043-0.256c0.025-0.08,0.068-0.158,0.127-0.238v-0.137
			c0-0.148,0.037-0.365,0.109-0.65s0.109-0.5,0.109-0.647c0-0.08-0.006-0.146-0.016-0.197c-0.012-0.051-0.018-0.094-0.018-0.127
			c0.033-0.104,0.064-0.277,0.094-0.521c0.027-0.245,0.088-0.418,0.18-0.521l0.137-0.803v-0.175c0-0.102,0.016-0.215,0.043-0.342
			c0.027-0.125,0.07-0.256,0.127-0.393V40.87l0.258-1.383v-0.223c0-0.148,0.016-0.299,0.043-0.453
			c0.027-0.152,0.07-0.32,0.129-0.504v-0.188c0-0.147,0.016-0.272,0.043-0.377c0.027-0.104,0.068-0.199,0.127-0.291l0.068-0.188
			l-0.033-0.31c-0.021-0.09-0.035-0.205-0.035-0.342c0-0.104,0.031-0.25,0.096-0.443c0.063-0.192,0.15-0.409,0.266-0.647
			l-0.119-0.24l0.324-1.727l0.035-0.066v-0.41c0.137-0.309,0.24-0.612,0.313-0.914c0.074-0.303,0.111-0.619,0.111-0.948l0.17-0.668
			l-0.102-0.974c-0.035-0.147-0.055-0.253-0.061-0.315c-0.006-0.063-0.01-0.123-0.01-0.181c0-0.229,0.061-0.486,0.182-0.776
			c0.117-0.291,0.287-0.591,0.504-0.896l0.152-0.068h0.309h0.428c0.068-0.021,0.146-0.045,0.238-0.067
			c0.092-0.021,0.217-0.045,0.377-0.067c0.205,0,0.473,0.091,0.803,0.272c0.17,0.104,0.301,0.172,0.395,0.205l0.395-0.633
			l0.479-0.614l0.359-0.033c0.033-0.012,0.088-0.031,0.162-0.062c0.072-0.027,0.133-0.048,0.18-0.06
			c0.068,0,0.145,0.015,0.238,0.043c0.092,0.027,0.188,0.064,0.291,0.11l0.205,0.138c0,0.205-0.031,0.401-0.096,0.589
			c-0.063,0.188-0.168,0.396-0.314,0.624l-0.104,0.427c-0.094,0.092-0.158,0.178-0.195,0.256c-0.041,0.08-0.063,0.172-0.063,0.273
			c0,0.057,0.004,0.1,0.01,0.128c0.004,0.029,0.016,0.072,0.023,0.128l-0.238,0.854l-0.104,0.188v0.104
			c0,0.067-0.014,0.146-0.043,0.229c-0.027,0.086-0.07,0.181-0.127,0.283l-0.035,0.461c0.104,0.363,0.246,0.779,0.428,1.248
			c0.045,0.102,0.074,0.176,0.086,0.221l0.033,0.394l0.225,0.205l0.342,1.11c0.047,0.08,0.078,0.158,0.104,0.232
			c0.021,0.072,0.035,0.16,0.035,0.264v0.172l0.221,0.188l0.582,1.471v0.443l0.461,1.266c0,0.146,0.021,0.269,0.061,0.357
			c0.039,0.092,0.111,0.184,0.213,0.272l0.633,1.847v0.188c0,0.183,0.031,0.342,0.094,0.479c0.064,0.137,0.162,0.256,0.301,0.358
			l0.377,0.804c0.021,0.184,0.1,0.434,0.23,0.752c0.131,0.317,0.299,0.659,0.504,1.024v0.238c0.045,0.092,0.088,0.156,0.129,0.197
			c0.039,0.039,0.117,0.088,0.23,0.145c0.045,0.193,0.115,0.379,0.213,0.555c0.098,0.179,0.248,0.375,0.453,0.591l0.172,0.309
			l0.375-1.367l0.188-0.205l-0.066-0.358c0.092-0.468,0.191-0.941,0.309-1.427c0.113-0.483,0.244-0.977,0.393-1.479l-0.033-0.238
			l0.307-1.266l-0.033-0.273c0.078-0.567,0.146-1.121,0.195-1.658c0.053-0.534,0.088-1.075,0.111-1.622v-0.188
			c0-0.148,0.018-0.293,0.051-0.438c0.035-0.144,0.086-0.281,0.154-0.419c-0.023-0.104-0.043-0.196-0.061-0.282
			c-0.018-0.084-0.025-0.162-0.025-0.229s0.012-0.137,0.035-0.205c0.021-0.067,0.057-0.143,0.102-0.223
			c0.012-0.033,0.021-0.068,0.027-0.104c0.004-0.032,0.008-0.09,0.008-0.17c0-0.067-0.018-0.147-0.051-0.239
			c-0.035-0.091-0.074-0.17-0.121-0.238l0.137-1.691l0.068-0.239c-0.068-0.183-0.113-0.324-0.137-0.427
			c-0.021-0.104-0.033-0.205-0.033-0.309c0-0.113,0.018-0.242,0.051-0.385c0.035-0.142,0.086-0.305,0.154-0.486l0.342-1.471
			c0.08-0.08,0.137-0.155,0.17-0.229c0.035-0.074,0.053-0.15,0.053-0.23c0-0.021-0.006-0.058-0.018-0.104
			c-0.012-0.045-0.029-0.12-0.053-0.222l0.582-1.59l0.033-0.409c0.021-0.193,0.191-0.428,0.514-0.701
			c0.318-0.273,0.725-0.524,1.213-0.752l0.309,0.033v0.239c0,0.091-0.008,0.168-0.025,0.229c-0.016,0.063-0.043,0.128-0.076,0.196
			c0.033,0.067,0.063,0.135,0.076,0.196c0.02,0.063,0.025,0.129,0.025,0.196c0,0.091-0.006,0.166-0.018,0.222
			c-0.012,0.059-0.027,0.12-0.051,0.188l-0.172,2.136l-0.137,0.564l0.104,0.409l-0.137,0.7l-0.189,2.428l-0.104,0.272l0.068,0.273
			l-0.104,1.16c-0.047,0.125-0.08,0.237-0.105,0.334c-0.021,0.098-0.031,0.186-0.031,0.266c0,0.09,0.002,0.168,0.008,0.229
			c0.006,0.063,0.016,0.122,0.023,0.182c-0.137,1.412-0.26,2.588-0.365,3.527c-0.107,0.938-0.168,1.409-0.182,1.409
			c-0.059,0.08-0.098,0.168-0.119,0.267c-0.021,0.098-0.033,0.194-0.033,0.299c0,0.092,0.004,0.156,0.01,0.195
			c0.006,0.041,0.016,0.084,0.023,0.129l-0.342,2.018l-0.066,0.103l0.031,0.325l-0.018,0.033c-0.158,1.004-0.297,1.67-0.408,2
			c0,0.332-0.023,0.611-0.078,0.838c-0.051,0.229-0.127,0.443-0.229,0.648c-0.059,0.137-0.104,0.279-0.139,0.428
			c-0.031,0.146-0.051,0.291-0.051,0.426l-0.443,1.146l-0.289,0.355l-0.105,0.273c-0.184,0.105-0.354,0.186-0.52,0.248
			c-0.164,0.063-0.326,0.111-0.486,0.145l-0.461,0.273l-0.785,0.24c-0.047,0.021-0.084,0.033-0.111,0.033c-0.029,0-0.076,0-0.146,0
			c-0.25,0-0.473-0.105-0.666-0.316s-0.369-0.533-0.529-0.965c-0.271-0.457-0.545-0.948-0.813-1.479
			c-0.268-0.528-0.545-1.135-0.83-1.819l-0.256-0.308l-0.479-1.196l-0.238-0.308c-0.023-0.365-0.072-0.662-0.146-0.889
			c-0.074-0.229-0.18-0.422-0.316-0.582l-0.598-1.162L161.183,40.866z"/>
		
			<linearGradient id="SVGID_10_" gradientUnits="userSpaceOnUse" x1="607.7822" y1="548.136" x2="776.6364" y2="548.136" gradientTransform="matrix(1 0 0 1 -591.5 -511)">
			<stop  offset="0.2611" style="stop-color:#C2B59B"/>
			<stop  offset="0.6892" style="stop-color:#3B5239"/>
			<stop  offset="0.9437" style="stop-color:#C49A6C"/>
		</linearGradient>
		<path fill="url(#SVGID_10_)" d="M183.457,43.492l0.342-0.086c0.021-0.01,0.049-0.024,0.076-0.041
			c0.027-0.018,0.049-0.026,0.061-0.026c0.059,0,0.107,0.022,0.152,0.067c0.045,0.048,0.08,0.104,0.105,0.173v0.272
			c0,0.021,0.01,0.08,0.023,0.17c0.02,0.092,0.031,0.178,0.043,0.256c-0.021,0.172-0.076,0.306-0.162,0.402
			c-0.086,0.096-0.229,0.186-0.436,0.264l-0.975,0.479l-0.154,0.153c-0.273,0.31-0.584,0.634-0.932,0.976s-0.762,0.729-1.238,1.162
			l-0.273,0.104l-0.271,0.271c-0.375,0.273-0.729,0.52-1.053,0.736c-0.322,0.215-0.641,0.416-0.947,0.598l-0.068-0.033
			c-0.191,0.146-0.396,0.277-0.605,0.393c-0.211,0.113-0.463,0.23-0.762,0.344l-0.17,0.17l-0.223,0.066l-0.154,0.139
			c-0.227,0.021-0.439,0.055-0.641,0.096c-0.199,0.039-0.387,0.094-0.557,0.162l-0.152-0.033h-0.105c-0.25,0-0.523-0.061-0.828-0.18
			c-0.303-0.121-0.641-0.307-1.018-0.559l-0.188-0.357c0-0.033-0.006-0.088-0.018-0.162s-0.018-0.123-0.018-0.146
			c0-0.104,0.01-0.195,0.023-0.281c0.018-0.088,0.043-0.162,0.076-0.23l-0.016-0.154c0.01-0.137,0.225-0.342,0.641-0.615
			c0.416-0.271,0.926-0.534,1.529-0.784l0.205-0.172l3.367-1.556c0.057-0.033,0.109-0.059,0.16-0.076
			c0.053-0.018,0.102-0.026,0.146-0.026c0.104,0,0.211,0.055,0.322,0.164c0.115,0.106,0.174,0.194,0.174,0.266
			c0,0.09-0.037,0.18-0.111,0.264c-0.074,0.087-0.18,0.164-0.314,0.232l-0.205,0.066l-0.256,0.205
			c-0.184,0.022-0.32,0.063-0.41,0.12c-0.092,0.058-0.166,0.148-0.225,0.273l-0.117,0.188c0.01,0.022,0.031,0.051,0.066,0.084
			c0.066,0.047,0.125,0.067,0.17,0.067c0.24,0,0.631-0.231,1.172-0.701c0.541-0.467,0.813-0.848,0.813-1.145V45.39v-0.14
			c0-0.045,0.008-0.095,0.025-0.146s0.041-0.104,0.076-0.162c0.17-0.08,0.336-0.166,0.496-0.256
			c0.158-0.092,0.301-0.184,0.426-0.272c0.014-0.08,0.021-0.156,0.027-0.23c0.004-0.074,0.008-0.174,0.008-0.299
			c0-0.685-0.797-1.867-2.395-3.555c-0.297-0.318-0.521-0.568-0.684-0.752l-0.119-0.24l-0.271-0.138l-0.463-0.528l-0.205-0.068
			c-0.217-0.262-0.439-0.518-0.666-0.77c-0.23-0.25-0.461-0.496-0.701-0.734l-0.41-0.803l-0.256-0.104l-0.309-0.393v-0.137
			c0-0.058-0.016-0.103-0.043-0.138c-0.027-0.033-0.07-0.057-0.129-0.067c-0.217-0.488-0.381-0.941-0.496-1.357
			c-0.111-0.416-0.17-0.783-0.17-1.104c0-0.066,0.014-0.142,0.033-0.222c0.023-0.08,0.061-0.16,0.105-0.239l-0.035-0.41
			c0.035-0.09,0.109-0.281,0.23-0.572c0.119-0.289,0.207-0.521,0.266-0.691l0.377-0.409l0.104-0.394
			c0.387-0.626,0.744-1.125,1.074-1.496c0.332-0.37,0.674-0.651,1.025-0.846c0.08-0.114,0.178-0.214,0.291-0.3
			c0.111-0.085,0.271-0.173,0.479-0.266l0.068-0.171c0.479-0.354,1.104-0.78,1.881-1.282c0.137-0.079,0.23-0.142,0.289-0.188
			l0.357-0.104l0.174-0.238c1.068-0.489,1.965-0.865,2.682-1.128c0.721-0.263,1.307-0.428,1.762-0.496
			c0.045-0.012,0.088-0.021,0.129-0.025c0.039-0.005,0.076-0.008,0.109-0.008c0.229,0,0.42,0.125,0.572,0.376
			s0.229,0.479,0.229,0.684v0.068l-0.033-0.034v0.53l-0.035,0.205l-0.018,0.051c0,0.08,0.004,0.153,0.01,0.222
			c0.006,0.069,0.008,0.145,0.008,0.223c0,0.067-0.018,0.153-0.051,0.257c-0.033,0.102-0.086,0.222-0.152,0.357l-0.309,0.188
			l-0.154,0.171c-0.764,0.707-1.563,1.345-2.398,1.914c-0.838,0.569-1.633,1.014-2.385,1.333c-0.033,0.012-0.064,0.02-0.096,0.025
			c-0.029,0.005-0.064,0.01-0.109,0.01c-0.08,0-0.17-0.025-0.271-0.078c-0.104-0.052-0.199-0.128-0.291-0.23l-0.068-0.204
			c0-0.092,0.018-0.181,0.051-0.266c0.035-0.086,0.086-0.174,0.154-0.265c0.092-0.068,0.205-0.154,0.342-0.257
			c0.844-0.614,1.266-1.149,1.266-1.605c-0.229,0.058-0.486,0.188-0.777,0.394c-0.289,0.204-0.635,0.507-1.033,0.905l-0.256,0.068
			l-0.139,0.256c-0.568,0.56-0.996,1.094-1.281,1.606c-0.283,0.514-0.428,1.014-0.428,1.504c0,0.192,0.037,0.397,0.111,0.614
			c0.072,0.218,0.186,0.455,0.332,0.718l0.154,0.377v0.104v0.154c0,0.113,0.049,0.227,0.145,0.342
			c0.098,0.113,0.221,0.193,0.369,0.238c0.307,0.514,0.824,1.229,1.555,2.145c0.73,0.918,1.646,2.004,2.752,3.256
			c0.045,0.125,0.107,0.238,0.189,0.334c0.08,0.099,0.191,0.197,0.342,0.3c0.184,0.33,0.316,0.657,0.402,0.981
			s0.127,0.688,0.127,1.086c0,0.193-0.002,0.361-0.01,0.504C183.477,43.216,183.467,43.355,183.457,43.492z"/>
	</g>
	<polygon fill="none" points="134.844,46.81 35.748,49.584 39.312,32.563 157.422,27.189 	"/>
</g>
</svg>
